<svg width="639" height="522" viewBox="0 0 639 522" fill="none" xmlns="http://www.w3.org/2000/svg">
<path d="M76.3292 507.75C17.93 474.566 6.85431 374.035 1.81989 282.289C-3.21454 189.567 -1.20074 106.605 53.1709 87.085C107.543 68.5406 214.272 113.438 286.768 105.629C358.256 96.8452 395.511 36.3319 457.938 11.9313C521.371 -12.4692 610.984 1.19513 633.135 47.0681C655.286 92.9411 609.977 172.975 575.743 235.44C541.509 297.906 518.35 343.779 480.089 380.867C442.834 417.956 392.49 446.261 314.96 477.494C237.43 507.75 133.721 541.911 76.3292 507.75Z" fill="url(#paint0_linear_103_3)"/>
<defs>
<linearGradient id="paint0_linear_103_3" x1="639" y1="0" x2="127.496" y2="626.152" gradientUnits="userSpaceOnUse">
<stop stop-color="#D03C3C"/>
<stop offset="1" stop-color="#FFCA8D"/>
<stop offset="1" stop-color="#FAB464"/>
</linearGradient>
</defs>
</svg>
