<svg width="49" height="49" viewBox="0 0 49 49" fill="none" xmlns="http://www.w3.org/2000/svg">
<g clip-path="url(#clip0_104_109)">
<path d="M24.2472 48.6622C37.5065 48.6622 48.2552 37.9135 48.2552 24.6542C48.2552 11.395 37.5065 0.64624 24.2472 0.64624C10.988 0.64624 0.239258 11.395 0.239258 24.6542C0.239258 37.9135 10.988 48.6622 24.2472 48.6622Z" fill="#F5BB60"/>
<path d="M21.7997 43.8191C33.7359 43.8191 43.4121 34.1428 43.4121 22.2066C43.4121 10.2704 33.7359 0.594238 21.7997 0.594238C9.86346 0.594238 0.187256 10.2704 0.187256 22.2066C0.187256 34.1428 9.86346 43.8191 21.7997 43.8191Z" fill="#E86F32"/>
<path d="M24.664 38.0904C35.0182 38.0904 43.4119 29.6967 43.4119 19.3424C43.4119 8.98823 35.0182 0.594482 24.664 0.594482C14.3098 0.594482 5.91602 8.98823 5.91602 19.3424C5.91602 29.6967 14.3098 38.0904 24.664 38.0904Z" fill="#E53D42"/>
<path d="M26.1742 38.0904C35.6944 38.0904 43.412 30.3728 43.412 20.8527C43.412 11.3326 35.6944 3.61499 26.1742 3.61499C16.6541 3.61499 8.93652 11.3326 8.93652 20.8527C8.93652 30.3728 16.6541 38.0904 26.1742 38.0904Z" fill="#BFD141"/>
<path d="M24.9244 38.0904C33.7543 38.0904 40.9124 30.9323 40.9124 22.1024C40.9124 13.2725 33.7543 6.1145 24.9244 6.1145C16.0946 6.1145 8.93652 13.2725 8.93652 22.1024C8.93652 30.9323 16.0946 38.0904 24.9244 38.0904Z" fill="#6DB64C"/>
<path d="M22.3726 33.039C29.7932 33.039 35.8088 27.0234 35.8088 19.6029C35.8088 12.1823 29.7932 6.16675 22.3726 6.16675C14.9521 6.16675 8.93652 12.1823 8.93652 19.6029C8.93652 27.0234 14.9521 33.039 22.3726 33.039Z" fill="#AFDBE7"/>
<path d="M24.5598 28.6123C30.7723 28.6123 35.8086 23.5761 35.8086 17.3635C35.8086 11.151 30.7723 6.11475 24.5598 6.11475C18.3473 6.11475 13.311 11.151 13.311 17.3635C13.311 23.5761 18.3473 28.6123 24.5598 28.6123Z" fill="#57BADF"/>
<path d="M25.9661 28.6643C31.4308 28.6643 35.8608 24.2342 35.8608 18.7695C35.8608 13.3048 31.4308 8.87476 25.9661 8.87476C20.5013 8.87476 16.0713 13.3048 16.0713 18.7695C16.0713 24.2342 20.5013 28.6643 25.9661 28.6643Z" fill="#02B2D6"/>
<path d="M24.5078 28.6121C29.1672 28.6121 32.9444 24.8349 32.9444 20.1756C32.9444 15.5162 29.1672 11.739 24.5078 11.739C19.8485 11.739 16.0713 15.5162 16.0713 20.1756C16.0713 24.8349 19.8485 28.6121 24.5078 28.6121Z" fill="url(#paint0_radial_104_109)"/>
<path d="M24.5078 28.6121C29.1672 28.6121 32.9444 24.8349 32.9444 20.1756C32.9444 15.5162 29.1672 11.739 24.5078 11.739C19.8485 11.739 16.0713 15.5162 16.0713 20.1756C16.0713 24.8349 19.8485 28.6121 24.5078 28.6121Z" fill="#231F20"/>
<path d="M26.7233 19.07C27.5598 19.4453 28.7133 18.69 29.2998 17.3831C29.8863 16.076 29.6835 14.7122 28.8471 14.337C28.0104 13.9616 26.8571 14.7169 26.2706 16.0238C25.6842 17.3309 25.8868 18.6948 26.7233 19.07Z" fill="white" fill-opacity="0.8"/>
</g>
<defs>
<radialGradient id="paint0_radial_104_109" cx="0" cy="0" r="1" gradientUnits="userSpaceOnUse" gradientTransform="translate(24.5316 20.1761) scale(8.45662)">
<stop stop-color="#797979"/>
<stop offset="1" stop-color="#4C4C4C"/>
</radialGradient>
<clipPath id="clip0_104_109">
<rect width="48.2432" height="48.2432" fill="white" transform="translate(0.135254 0.418945)"/>
</clipPath>
</defs>
</svg>
