<svg width="97" height="97" viewBox="0 0 97 97" fill="none" xmlns="http://www.w3.org/2000/svg">
<path d="M77.5511 34.2189C76.5875 33.8898 75.617 33.5832 74.6396 33.2993C74.8016 32.6397 74.9511 31.9764 75.0881 31.3093C77.2929 20.5864 75.8513 11.9479 70.9309 9.10417C66.2196 6.37542 58.4931 9.21913 50.6989 16.0184C49.9325 16.6893 49.1818 17.3803 48.4469 18.0914C47.9569 17.619 47.4544 17.1567 46.9393 16.7044C38.77 9.43396 30.5818 6.37165 25.667 9.22478C20.9558 11.9592 19.5556 20.0795 21.54 30.2426C21.7385 31.2477 21.9615 32.2484 22.209 33.2446C21.0827 33.5639 19.966 33.9158 18.8602 34.3C9.29446 37.645 3.17737 42.8895 3.17737 48.3282C3.17737 53.9478 9.74297 59.5824 19.7176 62.999C20.5267 63.2742 21.3433 63.5299 22.1675 63.766C21.8999 64.8327 21.6631 65.9112 21.457 67.0017C19.5725 76.9896 21.0424 84.9177 25.7443 87.6351C30.6006 90.4412 38.7473 87.5579 46.6886 80.6041C47.3168 80.0538 47.945 79.4727 48.5731 78.8609C49.3671 79.6285 50.1838 80.3735 51.023 81.0959C58.7118 87.7256 66.3044 90.4035 70.9987 87.6785C75.8513 84.863 77.4286 76.3451 75.3802 65.9822C75.2231 65.1907 75.0422 64.3829 74.8374 63.5587C75.4103 63.3891 75.9713 63.2139 76.5203 63.033C86.885 59.59 93.6372 54.0232 93.6372 48.3338C93.6334 42.8688 87.3204 37.5903 77.5511 34.2189ZM53.241 18.9394C59.9178 13.1144 66.1593 10.8153 69.0049 12.4586C72.0333 14.2093 73.2111 21.2686 71.3078 30.5272C71.1821 31.1302 71.0464 31.7314 70.9007 32.3307C66.9162 31.4243 62.8756 30.7847 58.806 30.416C56.4758 27.0595 53.9216 23.8642 51.1605 20.8522C51.8365 20.1964 52.5287 19.5588 53.2373 18.9394H53.241ZM29.8864 52.9754C30.7043 54.5584 31.5592 56.1219 32.4512 57.6659C33.3595 59.2414 34.3062 60.7936 35.2912 62.3225C32.4909 62.0181 29.7082 61.5696 26.9541 60.9789C27.7532 58.3933 28.7369 55.7079 29.8864 52.9754ZM29.8864 43.8676C28.7557 41.1935 27.7984 38.5627 27.0125 36.0224C29.5943 35.4439 32.3457 34.9708 35.2139 34.6128C34.2528 36.1129 33.3281 37.6349 32.4399 39.1789C31.5517 40.723 30.6986 42.2859 29.8808 43.8676H29.8864ZM31.9405 48.4224C33.1315 45.9386 34.4142 43.5026 35.7887 41.1143C37.1618 38.7273 38.6236 36.3949 40.1739 34.1172C42.865 33.9136 45.6239 33.8062 48.4111 33.8062C51.1982 33.8062 53.9741 33.9136 56.6633 34.1191C58.1973 36.3918 59.6502 38.716 61.0222 41.0917C62.3941 43.4674 63.6937 45.8922 64.9212 48.3659C63.7101 50.8585 62.4135 53.3045 61.0316 55.7041C59.6609 58.0912 58.2161 60.4305 56.6972 62.722C54.0118 62.9105 51.2322 63.0141 48.4054 63.0141C45.5787 63.0141 42.8518 62.9256 40.2154 62.7541C38.6537 60.4688 37.1801 58.1264 35.7943 55.7267C34.4086 53.3272 33.1221 50.8924 31.9349 48.4224H31.9405ZM64.3766 57.6395C65.2874 56.0591 66.1618 54.4579 66.9998 52.8359C68.1485 55.4405 69.1624 58.1024 70.0376 60.8111C67.2511 61.4386 64.4337 61.9198 61.5969 62.2528C62.5542 60.7339 63.4808 59.1961 64.3766 57.6395ZM66.9621 43.8695C66.1279 42.2802 65.2604 40.7098 64.3596 39.1582C63.4802 37.628 62.5637 36.1166 61.6101 34.6241C64.4953 34.9897 67.2636 35.4759 69.8586 36.0695C69.0243 38.7163 68.0575 41.3196 66.9621 43.8695ZM48.4488 23.6205C50.3305 25.6767 52.1073 27.8265 53.7725 30.0617C50.2108 29.8921 46.6465 29.8921 43.0798 30.0617C44.838 27.7362 46.6377 25.5785 48.4488 23.6205ZM27.6118 12.5735C30.6383 10.8172 37.3302 13.3273 44.3839 19.5971C44.8343 19.9985 45.2884 20.4187 45.7407 20.854C42.9655 23.8657 40.3932 27.0581 38.0406 30.4104C33.98 30.7762 29.9475 31.4057 25.9685 32.2949C25.7386 31.3702 25.5313 30.4392 25.3466 29.502C23.6412 20.79 24.77 14.2225 27.6118 12.5735ZM23.2002 60.0347C22.4464 59.8199 21.702 59.5868 20.9671 59.3356C16.5573 57.828 12.9146 55.8605 10.4139 53.7179C8.17507 51.7976 7.0406 49.881 7.0406 48.3282C7.0406 45.0284 11.9516 40.8185 20.1417 37.9634C21.1706 37.6054 22.2083 37.2781 23.2549 36.9816C24.4712 40.8906 25.9443 44.7151 27.6646 48.43C25.9238 52.1962 24.4325 56.0728 23.2002 60.0347ZM44.1427 77.6869C40.6318 80.7624 37.1154 82.9427 34.0154 84.0414C31.2301 85.027 29.012 85.0553 27.6721 84.2807C24.819 82.6318 23.6318 76.2641 25.2505 67.7235C25.4428 66.7184 25.6626 65.7134 25.9101 64.7083C29.9289 65.574 34.0019 66.1652 38.101 66.4778C40.4765 69.8475 43.0701 73.058 45.8651 76.0888C45.3035 76.641 44.7287 77.1724 44.1427 77.6869ZM48.5562 73.311C46.7244 71.3304 44.8965 69.1388 43.1137 66.7831C44.8462 66.851 46.6101 66.8849 48.4054 66.8849C50.2485 66.8849 52.0727 66.8453 53.8705 66.7643C52.2114 69.0354 50.4376 71.2205 48.5562 73.311ZM72.022 78.6988C71.483 81.6085 70.3994 83.5495 69.0595 84.326C66.2083 85.9805 60.1119 83.8303 53.5388 78.1599C52.785 77.5116 52.0312 76.8162 51.2642 76.0869C54.0048 73.0443 56.5376 69.8208 58.8455 66.4383C62.9673 66.089 67.0601 65.4562 71.0948 64.5443C71.2795 65.2906 71.4428 66.0218 71.5848 66.7379C72.4912 71.3172 72.6213 75.4594 72.022 78.6988ZM75.301 59.3563C74.8073 59.5203 74.2985 59.6786 73.7821 59.8331C72.517 55.9057 70.9864 52.0688 69.2009 48.3489C70.9194 44.6787 72.3901 40.8974 73.6031 37.0306C74.5284 37.3001 75.4273 37.5828 76.2923 37.8824C84.6632 40.7695 89.7702 45.0435 89.7702 48.3282C89.7702 51.8334 84.2543 56.3826 75.301 59.3563Z" fill="#61DBFB"/>
<path d="M48.4054 56.424C50.0092 56.4292 51.5785 55.9584 52.9145 55.0711C54.2506 54.1839 55.2933 52.9202 55.9107 51.4399C56.528 49.9597 56.6923 48.3296 56.3826 46.756C56.0729 45.1823 55.3032 43.736 54.171 42.6001C53.0388 41.4641 51.595 40.6897 50.0224 40.3749C48.4497 40.0601 46.8191 40.219 45.3368 40.8316C43.8546 41.4441 42.5875 42.4827 41.6959 43.8159C40.8043 45.149 40.3284 46.7168 40.3284 48.3206C40.3262 49.3832 40.5334 50.4357 40.9382 51.4182C41.3429 52.4006 41.9374 53.2936 42.6875 54.0462C43.4376 54.7987 44.3287 55.3961 45.3098 55.8041C46.2909 56.2121 47.3428 56.4227 48.4054 56.424Z" fill="#61DBFB"/>
</svg>
