<?xml version="1.0" standalone="no"?>
<!DOCTYPE svg PUBLIC "-//W3C//DTD SVG 20010904//EN"
 "http://www.w3.org/TR/2001/REC-SVG-20010904/DTD/svg10.dtd">
<svg version="1.0" xmlns="http://www.w3.org/2000/svg"
 width="1008.000000pt" height="1008.000000pt" viewBox="0 0 1008.000000 1008.000000"
 preserveAspectRatio="xMidYMid meet">
<metadata>
Created by potrace 1.14, written by Peter Selinger 2001-2017
</metadata>
<g transform="translate(0.000000,1008.000000) scale(0.100000,-0.100000)"
fill="#000000" stroke="none">
<path d="M195 9983 c19 -54 39 -107 44 -118 5 -11 31 -81 56 -155 26 -74 53
-148 61 -165 7 -16 19 -50 27 -75 8 -25 20 -56 25 -70 13 -30 25 -62 27 -72 2
-5 4 -10 5 -13 1 -3 3 -8 4 -12 1 -5 12 -35 25 -68 13 -33 24 -64 26 -70 2
-11 13 -40 25 -70 14 -35 40 -106 92 -250 28 -76 55 -151 61 -165 5 -14 11
-31 13 -39 2 -12 35 -99 54 -146 22 -51 73 -201 73 -212 0 -7 4 -13 9 -13 4 0
8 -5 8 -12 0 -11 151 -431 170 -473 15 -32 41 -109 42 -122 1 -7 5 -13 9 -13
5 0 6 -7 3 -15 -4 -8 -1 -15 6 -15 7 0 10 -7 6 -15 -3 -8 -1 -15 4 -15 6 0 9
-3 8 -7 -3 -15 25 -93 34 -93 5 0 7 -4 4 -9 -5 -8 14 -65 50 -148 8 -17 14
-36 14 -42 0 -6 6 -25 14 -43 16 -37 70 -180 71 -188 0 -3 5 -18 12 -35 6 -16
20 -55 31 -85 11 -30 24 -64 28 -75 4 -11 8 -23 9 -27 2 -5 4 -10 5 -13 1 -3
3 -8 5 -12 1 -5 7 -21 13 -36 7 -15 15 -40 18 -55 4 -15 10 -29 13 -32 6 -5
48 -119 56 -152 2 -9 8 -25 14 -36 6 -11 7 -22 4 -26 -3 -3 -1 -6 5 -6 7 0 12
-10 12 -23 0 -13 4 -27 10 -33 5 -5 11 -19 13 -31 2 -13 6 -26 10 -29 4 -4 7
-16 7 -26 0 -10 5 -18 12 -18 6 0 9 -3 6 -6 -3 -3 3 -29 14 -57 10 -29 29 -81
42 -117 13 -36 31 -82 40 -102 9 -21 13 -38 10 -38 -4 0 -1 -6 5 -13 6 -8 12
-22 14 -33 2 -10 9 -29 15 -41 7 -13 9 -23 5 -23 -4 0 -2 -5 5 -12 7 -7 12
-20 12 -30 0 -10 4 -18 8 -18 4 0 9 -8 10 -17 1 -10 24 -79 52 -153 28 -74 52
-139 53 -145 2 -5 5 -14 8 -20 4 -5 12 -28 18 -50 7 -22 17 -49 22 -60 5 -11
24 -63 43 -115 18 -52 60 -170 94 -261 39 -108 60 -178 58 -203 -1 -21 2 -40
7 -43 4 -3 3 -11 -3 -18 -8 -9 -8 -15 0 -20 7 -4 7 -12 0 -26 -7 -12 -7 -19
-1 -19 6 0 6 -11 1 -30 -5 -19 -5 -30 1 -30 6 0 6 -7 -1 -19 -7 -14 -7 -22 0
-26 8 -5 8 -11 1 -19 -6 -7 -8 -16 -5 -19 10 -10 11 -50 2 -70 -6 -11 -5 -17
2 -17 8 0 8 -6 0 -20 -8 -14 -8 -20 0 -20 8 0 8 -6 0 -20 -8 -14 -8 -20 0 -20
8 0 8 -6 0 -20 -8 -14 -8 -20 0 -20 8 0 8 -6 0 -20 -8 -14 -8 -20 0 -20 8 0 8
-6 0 -20 -8 -14 -8 -20 0 -20 8 0 8 -6 0 -20 -8 -14 -8 -20 0 -20 6 0 8 -5 5
-11 -11 -16 -12 -70 -3 -75 5 -3 4 -12 -2 -19 -8 -9 -8 -15 0 -20 7 -4 7 -12
0 -26 -7 -12 -7 -19 -1 -19 6 0 6 -11 1 -30 -5 -19 -5 -30 1 -30 6 0 6 -7 -1
-19 -7 -14 -7 -22 0 -26 8 -5 8 -11 1 -19 -6 -7 -8 -16 -5 -19 10 -10 11 -50
2 -69 -6 -12 -5 -18 2 -18 8 0 8 -6 0 -20 -8 -14 -8 -20 0 -20 8 0 8 -6 0 -20
-8 -14 -8 -20 0 -20 8 0 8 -6 0 -20 -8 -14 -8 -20 0 -20 8 0 8 -6 0 -20 -8
-14 -8 -20 0 -20 8 0 8 -6 0 -20 -8 -14 -8 -20 0 -20 8 0 8 -6 0 -20 -8 -14
-8 -20 0 -20 6 0 8 -5 5 -11 -11 -16 -12 -70 -3 -75 5 -3 4 -12 -2 -19 -8 -9
-8 -15 0 -20 7 -4 7 -12 0 -26 -7 -12 -7 -19 -1 -19 6 0 6 -11 1 -30 -5 -19
-5 -30 1 -30 6 0 6 -7 -1 -19 -7 -14 -7 -22 0 -26 8 -5 8 -11 1 -19 -6 -7 -8
-16 -5 -19 10 -10 11 -50 2 -69 -6 -12 -5 -18 2 -18 8 0 8 -6 0 -20 -8 -14 -8
-20 0 -20 8 0 8 -6 0 -20 -8 -14 -8 -20 0 -20 8 0 8 -6 0 -20 -8 -14 -8 -20 0
-20 8 0 8 -6 0 -20 -8 -14 -8 -20 0 -20 8 0 8 -6 0 -20 -8 -14 -8 -20 0 -20 8
0 8 -6 0 -20 -8 -14 -8 -20 0 -20 6 0 8 -5 5 -11 -11 -16 -12 -70 -3 -75 5 -3
4 -12 -2 -19 -8 -9 -8 -15 0 -20 7 -4 7 -12 0 -26 -7 -12 -7 -19 -1 -19 6 0 6
-11 1 -30 -5 -19 -5 -30 1 -30 6 0 6 -7 -1 -19 -7 -14 -7 -22 0 -26 8 -5 8
-11 1 -19 -6 -7 -8 -16 -5 -19 10 -10 11 -50 2 -70 -6 -11 -5 -17 2 -17 8 0 8
-6 0 -20 -8 -14 -8 -20 0 -20 8 0 8 -6 0 -20 -8 -14 -8 -20 0 -20 7 0 8 -7 3
-17 -10 -22 -10 -54 0 -70 4 -6 3 -14 -2 -18 -7 -4 -7 -15 -1 -30 6 -16 6 -25
0 -25 -6 0 -6 -9 -1 -23 5 -13 5 -30 1 -37 -5 -8 -5 -19 0 -25 5 -6 5 -17 0
-25 -5 -8 -5 -21 1 -31 6 -12 5 -20 -1 -24 -8 -5 -7 -11 1 -21 9 -11 9 -17 0
-28 -9 -10 -9 -16 -1 -21 8 -5 8 -10 0 -20 -8 -9 -8 -15 0 -20 7 -4 7 -12 0
-26 -8 -13 -7 -19 0 -19 6 0 8 -5 5 -11 -11 -16 -12 -70 -3 -75 5 -3 4 -12 -2
-19 -8 -9 -8 -15 0 -20 7 -4 7 -12 0 -26 -7 -12 -7 -19 -1 -19 6 0 6 -11 1
-30 -5 -19 -5 -30 1 -30 6 0 6 -7 -1 -19 -7 -14 -7 -22 0 -26 8 -5 8 -11 1
-19 -6 -7 -8 -16 -5 -19 10 -10 11 -50 2 -70 -6 -11 -5 -17 2 -17 8 0 8 -6 0
-20 -8 -14 -8 -20 0 -20 8 0 8 -6 0 -20 -8 -14 -8 -20 0 -20 7 0 8 -7 3 -18
-10 -21 -10 -53 0 -69 4 -6 3 -14 -2 -18 -7 -4 -7 -15 -1 -30 6 -16 6 -25 0
-25 -6 0 -6 -9 -1 -23 5 -13 5 -30 0 -39 -6 -11 -5 -19 1 -23 6 -4 7 -13 1
-24 -6 -10 -6 -23 -1 -31 5 -9 5 -19 -1 -26 -7 -8 -6 -14 1 -19 8 -5 8 -10 0
-20 -8 -10 -8 -15 0 -20 8 -5 8 -10 0 -20 -7 -9 -8 -15 -1 -19 7 -5 7 -15 1
-31 -6 -16 -6 -25 1 -25 6 0 6 -6 0 -18 -6 -11 -6 -24 0 -34 6 -11 5 -19 -1
-23 -8 -5 -8 -11 0 -20 8 -9 8 -15 0 -20 -7 -4 -7 -12 0 -25 7 -13 7 -21 0
-25 -8 -5 -8 -11 0 -20 8 -10 8 -15 0 -20 -8 -5 -8 -11 -1 -19 7 -9 7 -16 0
-23 -8 -8 -8 -13 0 -17 7 -5 7 -15 1 -31 -6 -17 -6 -25 1 -25 6 0 7 -6 0 -17
-5 -10 -5 -26 0 -40 5 -14 5 -23 -1 -23 -6 0 -6 -9 0 -25 6 -15 6 -26 -1 -30
-5 -4 -6 -13 0 -22 4 -9 5 -30 1 -49 -4 -18 -3 -37 2 -42 6 -6 6 -12 -1 -16
-7 -5 -7 -15 -1 -31 6 -16 6 -25 0 -25 -6 0 -6 -9 -1 -23 5 -13 5 -30 1 -37
-5 -8 -5 -19 0 -25 5 -6 5 -17 0 -25 -5 -8 -5 -21 1 -31 6 -12 5 -20 -1 -24
-8 -5 -7 -11 1 -21 9 -11 9 -17 0 -28 -9 -10 -9 -16 -1 -21 8 -5 8 -10 0 -20
-8 -9 -8 -15 0 -20 7 -4 7 -12 0 -26 -8 -13 -7 -19 0 -19 8 0 8 -6 0 -20 -11
-20 -8 -20 2010 -20 1111 0 2020 1 2020 3 0 2 21 59 46 128 25 68 46 129 48
134 1 6 11 35 23 65 47 121 96 256 96 268 0 6 4 12 9 12 4 0 7 3 6 8 -1 4 4
23 11 42 8 19 15 40 16 45 4 13 80 224 110 300 27 71 39 108 36 114 -2 2 2 7
8 10 6 4 12 16 14 26 2 11 9 33 15 48 7 16 12 34 12 42 0 8 4 17 10 20 6 3 10
13 10 22 0 8 6 29 14 46 25 57 149 402 149 415 0 6 5 12 10 12 6 0 8 3 5 6 -4
3 0 17 7 31 8 15 12 30 9 35 -3 4 0 8 7 8 7 0 9 3 6 6 -3 4 -2 15 4 26 6 11
12 27 14 36 4 19 80 225 94 257 18 40 81 222 81 233 0 7 5 12 10 12 6 0 9 3 9
8 -1 4 0 10 1 15 1 4 3 10 4 15 5 20 22 69 69 191 28 74 50 141 50 148 0 7 5
13 10 13 6 0 7 3 4 6 -3 4 -1 16 5 28 7 11 13 26 14 31 3 14 80 225 115 315
16 41 29 78 29 82 0 4 5 19 12 35 6 15 12 30 13 33 1 3 5 12 8 20 4 8 21 56
38 105 17 50 34 95 39 100 5 6 8 12 8 15 -1 8 12 52 27 90 8 19 33 87 55 150
23 63 48 129 55 145 7 17 18 48 25 70 7 22 15 45 19 50 3 6 7 18 8 28 2 10 8
28 15 40 7 12 13 27 14 33 3 20 136 378 150 405 7 14 11 29 7 32 -3 4 -1 12 4
19 9 12 72 177 77 203 1 6 5 15 8 21 4 6 14 33 23 60 9 27 23 64 31 82 9 18
17 40 19 50 2 9 10 35 18 57 18 48 26 73 27 80 0 3 6 18 14 33 7 15 31 77 51
137 21 61 41 115 45 120 4 6 10 19 13 30 3 11 22 65 42 120 20 55 38 109 41
119 2 11 7 22 11 25 5 3 10 15 11 26 3 18 21 66 84 232 11 29 19 53 19 55 -1
2 12 36 28 76 16 39 27 72 24 72 -3 0 0 6 6 13 6 8 8 17 4 20 -3 4 -1 7 5 7 7
0 11 3 10 8 -2 7 21 80 31 97 3 6 6 15 7 20 1 6 18 51 37 102 20 50 37 100 39
110 2 10 7 21 12 25 5 3 10 14 11 25 1 10 7 31 14 46 6 16 21 59 34 95 12 37
25 69 28 72 3 3 8 16 12 30 3 14 15 50 27 80 12 30 22 60 23 65 2 6 5 15 8 20
4 6 14 35 24 65 10 30 21 60 25 65 4 6 11 26 15 45 4 19 11 41 16 50 5 8 45
116 90 240 44 124 85 234 90 245 6 12 11 27 13 35 2 8 8 29 15 45 40 102 99
265 103 285 2 8 5 17 8 20 3 3 11 21 17 40 13 41 222 611 252 688 11 28 18 52
15 52 -4 0 -2 6 3 13 6 6 23 48 38 92 15 44 32 91 38 105 6 14 11 27 12 30 1
3 4 12 8 20 3 8 17 49 32 90 15 41 30 84 35 95 5 11 32 85 60 165 28 80 55
154 60 165 5 11 20 54 35 95 14 41 30 84 35 95 10 22 60 164 60 171 0 2 -436
4 -970 4 l-969 0 -12 -22 c-7 -13 -12 -25 -11 -28 3 -9 -20 -74 -31 -87 -5 -7
-7 -13 -3 -13 3 0 0 -17 -8 -37 -8 -21 -17 -47 -22 -58 -4 -11 -8 -24 -10 -30
-1 -5 -23 -68 -49 -140 -26 -71 -48 -134 -49 -140 -1 -5 -4 -14 -7 -20 -7 -11
-28 -74 -31 -90 0 -5 -7 -24 -14 -41 -7 -17 -10 -34 -7 -38 4 -3 2 -6 -4 -6
-5 0 -20 -35 -33 -77 -14 -43 -29 -81 -35 -85 -5 -4 -7 -8 -3 -8 6 0 -11 -51
-109 -325 -13 -38 -26 -77 -28 -85 -2 -8 -13 -40 -25 -70 -12 -30 -23 -62 -25
-70 -3 -12 -79 -228 -98 -280 -31 -84 -55 -160 -51 -160 4 0 2 -6 -3 -12 -6
-7 -16 -31 -23 -53 -7 -22 -15 -44 -19 -50 -3 -5 -6 -14 -7 -20 -3 -14 -78
-229 -120 -340 -11 -31 -13 -38 -20 -70 -4 -16 -10 -32 -13 -35 -3 -3 -16 -36
-29 -75 -25 -74 -89 -260 -99 -285 -3 -8 -8 -24 -10 -35 -2 -11 -8 -24 -13
-29 -6 -6 -10 -16 -10 -22 0 -7 -5 -25 -12 -41 -6 -15 -13 -37 -15 -47 -2 -11
-8 -25 -14 -33 -6 -7 -9 -13 -5 -13 3 0 -1 -17 -9 -37 -9 -21 -27 -72 -41
-113 -14 -41 -29 -84 -34 -95 -4 -11 -18 -49 -30 -85 -12 -36 -24 -72 -27 -80
-4 -8 -7 -17 -8 -20 -1 -3 -7 -18 -13 -33 -7 -16 -12 -35 -12 -43 0 -8 -4 -22
-10 -32 -9 -16 -140 -386 -144 -407 -1 -5 -5 -16 -9 -22 -5 -7 -10 -21 -12
-30 -2 -10 -15 -52 -30 -93 -33 -95 -36 -104 -35 -108 0 -1 -7 -16 -15 -32 -9
-17 -13 -30 -10 -30 3 0 -1 -13 -10 -30 -9 -16 -13 -30 -9 -30 4 0 2 -6 -4
-12 -6 -7 -11 -17 -12 -23 -2 -5 -4 -14 -6 -20 -2 -5 -24 -71 -49 -145 -25
-74 -50 -144 -55 -155 -13 -30 -24 -69 -22 -77 1 -5 -2 -8 -8 -8 -6 0 -9 -3
-8 -7 4 -18 -14 -73 -24 -73 -6 0 -9 -3 -5 -6 3 -3 -12 -56 -34 -118 -22 -61
-42 -118 -44 -126 -2 -8 -16 -46 -31 -85 -15 -38 -28 -77 -29 -85 -1 -8 -7
-26 -12 -40 -15 -37 -165 -463 -167 -475 -1 -5 -4 -14 -7 -20 -4 -5 -17 -41
-29 -80 -12 -38 -27 -76 -33 -83 -5 -7 -7 -15 -4 -19 4 -3 1 -15 -5 -27 -7
-11 -13 -27 -14 -34 -1 -8 -6 -21 -10 -30 -4 -9 -8 -20 -9 -24 -2 -5 -4 -10
-5 -13 -1 -3 -3 -8 -4 -12 -4 -18 -29 -89 -35 -98 -3 -5 -6 -14 -7 -20 -1 -5
-22 -67 -47 -137 -25 -70 -42 -129 -39 -132 3 -3 1 -6 -5 -6 -9 0 -16 -21 -24
-68 0 -4 -6 -16 -12 -27 -6 -11 -12 -23 -13 -27 -1 -5 -3 -10 -4 -13 -1 -3 -3
-8 -5 -12 -1 -5 -4 -15 -7 -23 -3 -8 -15 -44 -27 -80 -53 -152 -103 -296 -108
-310 -4 -8 -7 -18 -8 -22 -2 -5 -4 -11 -5 -15 -1 -5 -2 -11 -1 -15 0 -5 -4 -8
-11 -8 -6 0 -9 -3 -6 -6 6 -5 -22 -94 -77 -239 -15 -38 -28 -77 -30 -85 -2 -8
-4 -16 -5 -17 -3 -3 -3 -3 -15 -48 -4 -16 -11 -34 -15 -40 -3 -5 -13 -30 -20
-55 -7 -25 -17 -49 -20 -55 -4 -5 -10 -21 -13 -35 -7 -35 -73 -220 -81 -227
-3 -4 -6 -12 -6 -19 0 -7 -5 -25 -11 -41 -6 -15 -10 -29 -10 -30 0 -2 -6 -18
-14 -37 -8 -18 -11 -37 -7 -41 4 -4 1 -6 -7 -3 -12 3 -38 59 -56 123 -4 13
-35 105 -43 125 -3 8 -6 17 -7 20 -5 20 -39 117 -44 125 -3 6 -6 15 -8 20 -1
9 -123 359 -136 395 -3 8 -17 49 -31 90 -14 41 -45 132 -70 203 -25 70 -42
127 -38 127 4 0 2 4 -5 8 -6 4 -14 19 -17 32 -5 24 -58 177 -72 209 -4 9 -8
21 -9 26 -4 14 -37 110 -85 245 -23 63 -42 120 -44 127 -1 7 -5 16 -9 19 -4 4
-7 16 -7 26 0 10 -4 26 -10 36 -9 17 -90 247 -93 267 -1 6 -4 12 -7 15 -3 3
-34 91 -68 195 -35 105 -68 199 -72 210 -12 29 -66 183 -80 230 -7 22 -16 44
-21 50 -5 5 -9 19 -9 30 0 12 -3 25 -7 29 -12 12 -15 38 -17 176 -1 75 -5 141
-9 147 -4 7 -4 14 0 16 7 5 10 436 3 462 -1 6 -1 15 0 20 8 33 4 391 -5 397
-7 5 -7 8 0 8 12 0 13 358 2 377 -4 6 -4 14 0 16 10 6 10 448 0 464 -4 6 -4
14 0 16 10 6 10 768 0 784 -4 6 -4 14 0 16 7 5 10 436 3 462 -1 6 -1 15 0 20
8 33 4 391 -5 397 -7 5 -7 8 0 8 12 0 13 358 2 377 -4 6 -4 14 0 16 7 5 10
436 3 462 -1 6 -1 15 0 20 1 6 3 128 4 272 l1 263 -1882 0 -1883 0 35 -97z"/>
</g>
</svg>
